<svg xmlns="http://www.w3.org/2000/svg" width="92" height="40" viewBox="0 0 92 40" shape-rendering="crispEdges">
  <title>Elang jawa terbang ke kiri: sayap terangkat dan sayap mengepak turun</title>
  <path fill="#5b4034" d="M28 4h2v8h-2zM32 4h2v8h-2zM36 4h2v4h-2zM26 6h2v22h-2zM24 8h2v22h-2zM22 10h2v20h-2zM20 12h2v18h-2zM30 12h2v2h-2zM18 14h2v14h-2zM28 14h2v4h-2zM64 14h10v8h-10zM74 16h4v4h-4zM78 18h2v16h-2zM16 20h2v6h-2zM28 20h2v6h-2zM32 20h2v4h-2zM36 20h2v4h-2zM40 20h2v4h-2zM62 20h2v2h-2zM74 20h2v10h-2zM82 20h2v4h-2zM86 20h2v4h-2zM72 22h2v4h-2zM64 24h8v2h-8zM76 24h2v8h-2zM66 26h6v4h-6zM68 30h6v2h-6zM80 30h2v6h-2zM70 32h6v4h-6zM82 32h2v2h-2zM76 36h2v2h-2z"/>
  <path fill="#7a5642" d="M30 4h2v8h-2zM34 4h2v8h-2zM28 12h2v2h-2zM32 12h2v2h-2zM30 14h2v2h-2zM30 20h2v4h-2zM34 20h2v4h-2zM38 20h2v4h-2zM42 20h2v4h-2zM76 20h2v4h-2zM80 20h2v4h-2zM84 20h2v4h-2zM88 20h2v4h-2zM64 22h8v2h-8zM8 26h4v2h-4zM14 26h4v2h-4zM54 26h4v2h-4zM60 26h4v2h-4zM72 26h2v4h-2zM12 30h4v2h-4zM58 30h4v2h-4zM74 30h2v2h-2zM76 32h2v4h-2z"/>
  <path fill="#a85d3a" d="M6 12h10v4h-10zM52 12h10v4h-10zM4 14h2v4h-2zM50 14h2v4h-2zM8 16h8v4h-8zM54 16h8v4h-8zM6 18h2v2h-2zM52 18h2v2h-2zM10 20h6v2h-6zM56 20h6v2h-6zM14 22h2v2h-2zM60 22h2v2h-2z"/>
  <path fill="#f3e6b8" d="M6 20h4v4h-4zM8 24h8v2h-8zM10 22h4v2h-4zM10 28h10v2h-10zM12 26h2v2h-2zM16 30h2v2h-2zM52 20h4v4h-4zM54 24h8v2h-8zM56 22h4v2h-4zM56 28h8v2h-8zM58 26h2v2h-2zM62 30h2v2h-2z"/>
  <path fill="#e3d099" d="M30 2h2v2h-2zM34 2h2v2h-2zM78 34h2v2h-2zM82 34h2v2h-2zM72 36h2v2h-2zM80 36h2v2h-2z"/>
  <path fill="#fff3ce" d="M20 2h2v2h-2zM66 2h2v2h-2zM12 4h2v2h-2zM58 4h2v2h-2z"/>
  <path fill="#f2c64a" d="M2 18h4v2h-4zM48 18h4v2h-4zM2 20h2v2h-2zM48 20h2v2h-2zM16 32h4v2h-4zM18 34h2v2h-2z"/>
  <path fill="#172d43" d="M0 16h2v6h-2zM2 14h2v4h-2zM2 22h4v2h-4zM4 12h2v2h-2zM4 20h2v2h-2zM6 10h10v2h-10zM6 16h2v2h-2zM6 24h2v4h-2zM8 28h2v2h-2zM10 30h2v2h-2zM12 32h4v2h-4zM14 8h4v2h-4zM14 34h4v2h-4zM16 12h2v8h-2zM16 36h4v2h-4zM18 2h2v2h-2zM18 6h2v2h-2zM18 12h2v2h-2zM18 30h8v2h-8zM20 4h2v2h-2zM20 10h2v2h-2zM20 32h2v4h-2zM22 8h2v2h-2zM24 6h2v2h-2zM26 4h2v2h-2zM26 28h2v2h-2zM28 2h2v2h-2zM28 18h16v2h-16zM28 26h2v2h-2zM30 0h2v2h-2zM30 16h2v2h-2zM30 24h16v2h-16zM32 2h2v2h-2zM32 14h2v2h-2zM34 0h2v2h-2zM34 12h2v2h-2zM36 2h2v2h-2zM36 8h2v4h-2zM38 4h2v4h-2zM44 20h2v4h-2zM46 16h2v6h-2zM48 14h2v4h-2zM48 22h4v2h-4zM50 12h2v2h-2zM50 20h2v2h-2zM52 10h10v2h-10zM52 16h2v2h-2zM52 24h2v4h-2zM54 28h2v2h-2zM56 30h2v2h-2zM58 32h8v2h-8zM60 8h4v2h-4zM62 12h2v8h-2zM62 22h2v4h-2zM64 2h2v2h-2zM64 6h2v2h-2zM64 12h10v2h-10zM64 26h2v6h-2zM66 4h2v2h-2zM66 30h2v2h-2zM68 32h2v4h-2zM70 36h2v2h-2zM72 38h2v2h-2zM74 14h4v2h-4zM74 36h2v2h-2zM76 38h2v2h-2zM78 16h2v2h-2zM78 36h2v2h-2zM80 18h10v2h-10zM80 24h2v6h-2zM80 38h2v2h-2zM82 24h10v2h-10zM82 30h2v2h-2zM82 36h2v2h-2zM84 32h2v4h-2zM90 20h2v4h-2zM20 0h4v2h-4zM66 0h4v2h-4zM12 2h2v2h-2zM22 2h2v2h-2zM58 2h2v2h-2zM68 2h2v2h-2zM10 4h2v2h-2zM14 4h2v2h-2zM18 4h2v2h-2zM56 4h2v2h-2zM60 4h2v2h-2zM64 4h2v2h-2zM8 6h10v2h-10zM54 6h10v2h-10zM6 8h8v2h-8zM52 8h8v2h-8z"/>
</svg>
